Coordinates
version=1
nRows=16
nColumns=18
inDegrees=yes

Units are S.I. units (second, meters, Newtons, ...)
If the header above contains a line with 'inDegrees', this indicates whether rotational values are in degrees (yes) or radians (no).

endheader
time	ground_thorax_rot_x	ground_thorax_rot_y	ground_thorax_rot_z	ground_thorax_tx	ground_thorax_ty	ground_thorax_tz	clav_prot	clav_elev	scapula_abduction	scapula_elevation	scapula_upward_rot	scapula_winging	plane_elv	shoulder_elv	axial_rot	elbow_flexion	pro_sup
      2.00000000	      0.51728761	    -16.65400506	      4.48866110	     -0.06897909	      0.05052713	      0.00781474	    -26.57484513	      0.49481152	      8.38942589	     -8.28108273	     62.22385223	      5.99275258	    -26.00000000	     47.38037901	     25.27606392	     20.78990222	   -178.04264012
      2.02000000	      0.51728761	    -16.53677701	      4.33645471	     -0.06839391	      0.05024134	      0.00808345	    -26.53860437	      0.32040462	      8.09783904	     -8.39338475	     61.83557746	      6.04917110	    -26.00000000	     47.44055524	     25.49217760	     21.38665059	   -178.19464964
      2.04000000	      0.51728761	    -16.38606720	      4.17000245	     -0.06778465	      0.04992183	      0.00833973	    -26.49353616	      0.11937320	      7.75805855	     -8.52138015	     61.37724459	      6.11687519	    -26.00000000	     47.51685345	     25.64897138	     22.03924053	   -178.31506429
      2.06000000	      0.51728761	    -16.21793697	      3.99856175	     -0.06718360	      0.04957438	      0.00861337	    -26.43532496	     -0.10049617	      7.38602270	     -8.65918311	     60.85776506	      6.19444675	    -26.00000000	     47.58080184	     25.72117049	     22.71856782	   -178.37015049
      2.08000000	      0.51728761	    -15.99637188	      3.81397838	     -0.06656711	      0.04919938	      0.00886181	    -26.37069470	     -0.34980287	      6.94936540	     -8.81324675	     60.25483221	      6.28672205	    -26.00000000	     47.67802256	     25.69563183	     23.46692348	   -178.34455297
      2.10000000	      0.51728761	    -15.73402814	      3.62698085	     -0.06597244	      0.04879535	      0.00910477	    -26.29709513	     -0.61993115	      6.46203535	     -8.97699837	     59.57865008	      6.39229407	    -26.00000000	     47.77960989	     25.54030444	     24.25150330	   -178.20615024
      2.12000000	      0.51728761	    -15.36680231	      3.44034472	     -0.06536622	      0.04835830	      0.00940768	    -26.26456110	     -0.79832051	      5.76043697	     -9.07859784	     58.78568908	      6.47271912	    -26.00000000	     47.77123785	     24.33255510	     25.16553520	   -176.61364461
      2.14000000	      0.51728761	    -15.04656609	      3.25878775	     -0.06484214	      0.04792299	      0.00974971	    -26.20846868	     -1.04993208	      5.14358902	     -9.22259643	     58.01265672	      6.58566841	    -26.00000000	     47.70013737	     23.79336292	     25.94241772	   -175.31151582
      2.16000000	      0.51728761	    -14.72106128	      3.09212689	     -0.06434579	      0.04745973	      0.01008628	    -26.11017137	     -1.31835055	      4.52642727	     -9.36879480	     57.15411135	      6.71497318	    -26.00000000	     47.64986404	     23.06078046	     26.72406503	   -174.41325055
      2.18000000	      0.51728761	    -14.35954391	      2.92966088	     -0.06388462	      0.04698525	      0.01046030	    -26.03750665	     -1.58769392	      3.84187890	     -9.51147820	     56.27184563	      6.85312323	    -26.00000000	     47.50216562	     22.32298368	     27.45754320	   -173.01024166
      2.20000000	      0.51728761	    -14.00533605	      2.76737034	     -0.06344295	      0.04648167	      0.01088420	    -25.96311901	     -1.85536932	      3.14612429	     -9.64728871	     55.37150029	      6.99953067	    -26.00000000	     47.27155018	     21.59066889	     28.13997710	   -171.52819845
      2.22000000	      0.51728761	    -13.62461655	      2.61435011	     -0.06305635	      0.04596785	      0.01130828	    -25.89562984	     -2.12171685	      2.42076804	     -9.77652896	     54.45029307	      7.15471840	    -26.00000000	     46.96523236	     20.86496748	     28.72433224	   -169.93114564
      2.24000000	      0.51728761	    -13.25679085	      2.47072798	     -0.06269644	      0.04543369	      0.01178381	    -25.84138216	     -2.37365100	      1.68389890	     -9.89244184	     53.54140243	      7.31167110	    -26.00000000	     46.53182984	     20.28113761	     29.21022107	   -167.93156309
      2.26000000	      0.51728761	    -12.88380348	      2.32041316	     -0.06235392	      0.04490138	      0.01223912	    -25.77041016	     -2.65224959	      0.93931304	    -10.01675764	     52.58173010	      7.49062586	    -26.00000000	     46.10431669	     19.60128125	     29.69458847	   -166.80021121
      2.28000000	      0.51728761	    -12.50525520	      2.18509424	     -0.06203974	      0.04436489	      0.01274809	    -25.73552514	     -2.88808079	      0.15145398	    -10.11140049	     51.65227964	      7.65887575	    -26.00000000	     45.49996593	     19.04419601	     30.03014054	   -164.70354050
      2.30000000	      0.51728761	    -12.11918178	      2.03284818	     -0.06172999	      0.04384970	      0.01318271	    -25.65722759	     -3.20389082	     -0.61606822	    -10.24459785	     50.63469644	      7.87437922	    -26.00000000	     45.03453460	     18.70288655	     30.42240002	   -164.16051886
